# xmcd
#
# Track frame offsets:
# 150
# 15075
# 27450
# 44925
# 64425
# 77850
# 89700
# 99825
# 110700
# 123225
# 135975
# 148575
# 159300
# 172800
# 185025
# 199575
# 212100
# 226050
# 244350
# 255450
# 269925
# 283875
# 297075
# 310425
#
# Disc length: 4330 seconds
#
#
# Revision: 0
# Processed by: cddbd v1.5.1PL0 Copyright (c) Steve Scherf et al.
# Submitted via: FreeRIP 2.70 
#
DISCID=6b10e818
DTITLE=Otis Reading - Dreams to remember
DYEAR=1900
DGENRE=Blues
TTITLE0=I've got dreams to remember
TTITLE1=Sittin' on the dock of the bay
TTITLE2=Try a little tenderness
TTITLE3=Change gonna come
TTITLE4=I've been loving you too long
TTITLE5=These arms of mine
TTITLE6=Respect
TTITLE7=Hard to handle
TTITLE8=Fa-Fa-Fa-Fa-Fa-Fa
TTITLE9=Satisfaction
TTITLE10=I can't turn you loose
TTITLE11=Love man
TTITLE12=My gril
TTITLE13=Shake
TTITLE14=My lover's prayer
TTITLE15=Mr. Pitiful
TTITLE16=Tramp
TTITLE17=Cigarettes and coffee
TTITLE18=Pain in my heart
TTITLE19=Cupid
TTITLE20=Chain gang
TTITLE21=Knock on wood (with Carla Thomas)
TTITLE22=I love you more than words can say
TTITLE23=Wonderful world
EXTD=
EXTT0=
EXTT1=
EXTT2=
EXTT3=
EXTT4=
EXTT5=
EXTT6=
EXTT7=
EXTT8=
EXTT9=
EXTT10=
EXTT11=
EXTT12=
EXTT13=
EXTT14=
EXTT15=
EXTT16=
EXTT17=
EXTT18=
EXTT19=
EXTT20=
EXTT21=
EXTT22=
EXTT23=
PLAYORDER=
